<svg id="Layer_1" enable-background="new 0 0 512 512" height="512" viewBox="0 0 512 512" width="512" xmlns="http://www.w3.org/2000/svg"><g><path d="m236 244.206 20 84.979h149.148l-14.571-118.654z" fill="#03232e"/><path d="m106.852 329.185h149.148v-84.979l-134.578-33.675z" fill="#334973"/><path d="m387.065 181.932h-151.065l20 82.274 134.577-53.675z" fill="#334973"/><path d="m124.934 181.932-3.512 28.599 134.578 53.675v-82.274z" fill="#7d8fb3"/><path d="m256 30-20 102.103 20 102.103 256-102.103z" fill="#03232e"/><path d="m0 132.103 256 102.103v-204.206z" fill="#334973"/><path d="m241 132.103h30v278.837h-30z" fill="#e6e6f2"/><path d="m256 370.94-20 55.517 20 55.543h43.687v-67.373c0-24.128-19.559-43.687-43.687-43.687z" fill="#ffbf80"/><path d="m212.313 414.627v67.373h43.687v-111.06c-24.128 0-43.687 19.559-43.687 43.687z" fill="#ffe666"/></g></svg>